# xmcd CD database file
#
# Track frame offsets:
#	150
#	15007
#	28027
#	44348
#	61390
#	77527
#	93258
#	110971
#	126068
#	142252
#	156978
#	173622
#	188540
#	202343
#	217189
#	229944
#	241009
#	256962
#
# Disc length: 3623 seconds
#
# Revision: 1
# Processed by: cddbd v1.5.2PL0 Copyright (c) Steve Scherf et al.
# Submitted via: CDex 1.83
#
DISCID=f70e2512
DTITLE=Mel Torme - It's A Blue World 1-12 And The Marty Paich Dek-Tette (1955)
DYEAR=1955
DGENRE=Jazz
TTITLE0=I Got It Bad (And That Ain't Good)
TTITLE1=Till The Clouds Roll By
TTITLE2=Isn't It Romantic
TTITLE3=I Know Why (And So Do You)
TTITLE4=All This And Heaven Too
TTITLE5=How Long Has This Been Going On
TTITLE6=Polka Dots And Moonbeams
TTITLE7=You Leave Me Breathless
TTITLE8=I Found A Million Dollar Baby (In A Five and Ten Cent Store)
TTITLE9=Wonderful One
TTITLE10=It's A Blue World
TTITLE11=Stay As Sweet As You Are
TTITLE12=Lulu's Back In Town
TTITLE13=When The Sun Comes Out
TTITLE14=I Love To Watch The Moonlight
TTITLE15=Fascinating Rhythm
TTITLE16=The Blues
TTITLE17=Carioca
EXTD=YEAR: 1955
EXTT0=
EXTT1=
EXTT2=
EXTT3=
EXTT4=
EXTT5=
EXTT6=
EXTT7=
EXTT8=
EXTT9=
EXTT10=
EXTT11=
EXTT12=
EXTT13=
EXTT14=
EXTT15=
EXTT16=
EXTT17=
PLAYORDER=
